<svg width="573" height="195" viewBox="0 0 573 195" fill="none" xmlns="http://www.w3.org/2000/svg">
<path fill-rule="evenodd" clip-rule="evenodd" d="M5.48418 75.8992C2.02573 78.5666 0 82.6872 0 87.0547V140.786C0 148.567 6.30735 154.874 14.0879 154.874H84.6205C92.4011 154.874 98.7084 148.567 98.7084 140.786V87.0547C98.7084 82.6872 96.6827 78.5666 93.2242 75.8992L57.9579 48.7C52.8884 44.7901 45.82 44.7901 40.7505 48.7L5.48418 75.8992ZM50.3428 81.3237C50.059 80.3293 48.6497 80.3293 48.3659 81.3237C44.5625 94.6504 34.1455 105.067 20.8188 108.871C19.8244 109.155 19.8244 110.564 20.8188 110.848C34.1455 114.651 44.5625 125.068 48.3659 138.395C48.6497 139.389 50.059 139.389 50.3428 138.395C54.1462 125.068 64.5632 114.651 77.8899 110.848C78.8843 110.564 78.8843 109.155 77.8899 108.871C64.5632 105.067 54.1462 94.6504 50.3428 81.3237Z" fill="#F2EFDF"/>
<path d="M191.042 154L190.233 138.947V73.0684H208.2V154H191.042ZM164.659 155.942C157.321 155.942 150.9 154.216 145.397 150.763C140.001 147.202 135.739 142.238 132.61 135.871C129.588 129.505 128.078 122.059 128.078 113.534C128.078 104.901 129.588 97.4558 132.61 91.1971C135.739 84.8304 140.001 79.9206 145.397 76.4675C150.9 72.9065 157.321 71.126 164.659 71.126C171.457 71.126 177.284 72.9065 182.14 76.4675C187.104 79.9206 190.881 84.8304 193.47 91.1971C196.06 97.4558 197.355 104.901 197.355 113.534C197.355 122.059 196.06 129.505 193.47 135.871C190.881 142.238 187.104 147.202 182.14 150.763C177.284 154.216 171.457 155.942 164.659 155.942ZM169.191 139.432C173.291 139.432 176.906 138.353 180.036 136.195C183.273 133.929 185.755 130.854 187.481 126.969C189.316 123.084 190.233 118.606 190.233 113.534C190.233 108.462 189.316 103.984 187.481 100.1C185.755 96.2148 183.273 93.1934 180.036 91.0352C176.906 88.877 173.237 87.7979 169.029 87.7979C164.713 87.7979 160.882 88.877 157.537 91.0352C154.192 93.1934 151.548 96.2148 149.605 100.1C147.771 103.984 146.8 108.462 146.692 113.534C146.8 118.606 147.771 123.084 149.605 126.969C151.548 130.854 154.192 133.929 157.537 136.195C160.99 138.353 164.874 139.432 169.191 139.432ZM220.149 154V40.6957H238.277V138.947L237.306 154H220.149ZM263.852 155.942C257.053 155.942 251.172 154.216 246.209 150.763C241.353 147.202 237.63 142.238 235.04 135.871C232.45 129.505 231.155 122.059 231.155 113.534C231.155 104.901 232.45 97.4558 235.04 91.1971C237.63 84.8304 241.353 79.9206 246.209 76.4675C251.172 72.9065 257.053 71.126 263.852 71.126C271.19 71.126 277.556 72.9065 282.952 76.4675C288.455 79.9206 292.717 84.8304 295.739 91.1971C298.868 97.4558 300.433 104.901 300.433 113.534C300.433 122.059 298.868 129.505 295.739 135.871C292.717 142.238 288.455 147.202 282.952 150.763C277.556 154.216 271.19 155.942 263.852 155.942ZM259.32 139.432C263.636 139.432 267.467 138.353 270.812 136.195C274.157 133.929 276.801 130.854 278.743 126.969C280.793 123.084 281.819 118.606 281.819 113.534C281.819 108.462 280.847 103.984 278.905 100.1C277.071 96.2148 274.481 93.1934 271.136 91.0352C267.79 88.877 263.906 87.7979 259.481 87.7979C255.381 87.7979 251.712 88.877 248.475 91.0352C245.237 93.1934 242.702 96.2148 240.867 100.1C239.141 103.984 238.277 108.462 238.277 113.534C238.277 118.606 239.141 123.084 240.867 126.969C242.702 130.854 245.184 133.929 248.313 136.195C251.55 138.353 255.219 139.432 259.32 139.432ZM349.93 155.942C341.837 155.942 334.607 154.162 328.24 150.601C321.982 146.932 317.072 141.914 313.511 135.548C309.95 129.181 308.169 121.843 308.169 113.534C308.169 105.225 309.896 97.8874 313.349 91.5208C316.91 85.1542 321.82 80.1904 328.079 76.6294C334.337 72.9605 341.513 71.126 349.606 71.126C357.7 71.126 364.875 72.9605 371.134 76.6294C377.393 80.1904 382.249 85.1542 385.702 91.5208C389.263 97.8874 391.043 105.225 391.043 113.534C391.043 121.843 389.317 129.181 385.864 135.548C382.411 141.914 377.555 146.932 371.296 150.601C365.037 154.162 357.915 155.942 349.93 155.942ZM349.93 139.27C354.354 139.27 358.293 138.191 361.746 136.033C365.199 133.767 367.897 130.746 369.839 126.969C371.782 123.084 372.753 118.606 372.753 113.534C372.753 108.462 371.728 104.038 369.677 100.261C367.735 96.3767 365.037 93.3552 361.584 91.1971C358.131 88.931 354.139 87.7979 349.606 87.7979C345.074 87.7979 341.082 88.877 337.628 91.0352C334.175 93.1934 331.478 96.2148 329.535 100.1C327.593 103.984 326.622 108.462 326.622 113.534C326.622 118.606 327.593 123.084 329.535 126.969C331.586 130.746 334.337 133.767 337.79 136.033C341.351 138.191 345.398 139.27 349.93 139.27ZM461.948 154L461.139 138.947V40.6957H479.106V154H461.948ZM435.565 155.942C428.227 155.942 421.806 154.216 416.303 150.763C410.907 147.202 406.645 142.238 403.516 135.871C400.494 129.505 398.984 122.059 398.984 113.534C398.984 104.901 400.494 97.4558 403.516 91.1971C406.645 84.8304 410.907 79.9206 416.303 76.4675C421.806 72.9065 428.227 71.126 435.565 71.126C442.363 71.126 448.19 72.9065 453.046 76.4675C458.01 79.9206 461.786 84.8304 464.376 91.1971C466.966 97.4558 468.261 104.901 468.261 113.534C468.261 122.059 466.966 129.505 464.376 135.871C461.786 142.238 458.01 147.202 453.046 150.763C448.19 154.216 442.363 155.942 435.565 155.942ZM440.097 139.432C444.197 139.432 447.812 138.353 450.942 136.195C454.179 133.929 456.661 130.854 458.387 126.969C460.222 123.084 461.139 118.606 461.139 113.534C461.139 108.462 460.222 103.984 458.387 100.1C456.661 96.2148 454.179 93.1934 450.942 91.0352C447.812 88.877 444.143 87.7979 439.935 87.7979C435.619 87.7979 431.788 88.877 428.443 91.0352C425.097 93.1934 422.454 96.2148 420.511 100.1C418.677 103.984 417.706 108.462 417.598 113.534C417.706 118.606 418.677 123.084 420.511 126.969C422.454 130.854 425.097 133.929 428.443 136.195C431.896 138.353 435.78 139.432 440.097 139.432ZM528.769 155.942C520.891 155.942 513.877 154.162 507.727 150.601C501.684 146.932 496.882 141.914 493.321 135.548C489.868 129.181 488.141 121.843 488.141 113.534C488.141 105.225 489.922 97.8874 493.483 91.5208C497.044 85.1542 501.899 80.1904 508.05 76.6294C514.309 72.9605 521.431 71.126 529.416 71.126C536.646 71.126 543.175 73.0144 549.002 76.7912C554.829 80.4601 559.415 85.8016 562.76 92.8157C566.213 99.8298 567.94 108.193 567.94 117.904H504.327L506.755 115.638C506.755 120.602 507.834 124.919 509.993 128.587C512.151 132.148 515.01 134.9 518.571 136.842C522.132 138.785 526.071 139.756 530.387 139.756C535.351 139.756 539.452 138.677 542.689 136.519C545.926 134.253 548.462 131.339 550.297 127.778L566.321 134.576C564.055 138.893 561.141 142.67 557.58 145.907C554.127 149.144 549.973 151.626 545.117 153.353C540.369 155.079 534.92 155.942 528.769 155.942ZM507.888 106.25L505.299 103.984H550.944L548.516 106.25C548.516 101.826 547.545 98.2111 545.603 95.4055C543.66 92.492 541.178 90.3338 538.157 88.931C535.243 87.4203 532.168 86.6649 528.931 86.6649C525.693 86.6649 522.456 87.4203 519.219 88.931C515.982 90.3338 513.284 92.492 511.126 95.4055C508.967 98.2111 507.888 101.826 507.888 106.25Z" fill="#F2EFDF"/>
</svg>
